<svg xmlns="http://www.w3.org/2000/svg" viewBox="0 0 390 844" width="390" height="844" font-family="Inter, system-ui, sans-serif"><defs><clipPath id="s"><rect width="390" height="844" rx="44"/></clipPath></defs><g clip-path="url(#s)"><rect width="390" height="844" fill="#F4F2F8"/><g fill="#FFF" font-size="13" font-weight="600"><text x="26" y="44">9:41</text><g transform="translate(316,33)"><rect x="0" y="3" width="15" height="9" rx="2" fill="none" stroke="#FFF" stroke-width="1.4" opacity=".8"/><rect x="1.5" y="4.5" width="10" height="6" rx="1" fill="#FFF"/><rect x="23" y="1" width="21" height="12" rx="3" fill="none" stroke="#FFF" stroke-width="1.4" opacity=".8"/><rect x="25" y="3" width="13" height="8" rx="1.5" fill="#FFF"/></g></g><rect x="150" y="14" width="90" height="6" rx="3" fill="#FFF" opacity=".3"/><rect width="390" height="176" fill="#241A38"/><text x="26" y="84" font-size="10.5" font-weight="700" fill="#B98FD6" text-anchor="start" letter-spacing="1.5">COMPLAINT CL-4821</text><text x="26" y="116" font-size="25" font-weight="800" fill="#FFF" text-anchor="start" letter-spacing="0">Pipeline leak</text><rect x="26" y="132" width="92" height="22" rx="11.0" fill="rgba(0,187,216,.20)"/><text x="72.0" y="146.6" font-size="10.5" font-weight="700" fill="#00BBD8" text-anchor="middle" letter-spacing="0">In progress</text><text x="364" y="116" font-size="17" font-weight="800" fill="#FFF" text-anchor="end" letter-spacing="0">3 days</text><text x="364" y="134" font-size="10.5" font-weight="600" fill="#9A93B0" text-anchor="end" letter-spacing="0">since raised</text><text x="26" y="224" font-size="10.5" font-weight="700" fill="#7C7590" text-anchor="start" letter-spacing="1.4">PROGRESS</text><rect x="35" y="268" width="2" height="56" fill="#00BBD8"/><circle cx="36" cy="260" r="11" fill="#00BBD8"/><path d="M30 260 l4 4 8-8" fill="none" stroke="#FFF" stroke-width="2.2" stroke-linecap="round" stroke-linejoin="round"/><text x="62" y="258" font-size="15" font-weight="700" fill="#2A2440" text-anchor="start" letter-spacing="0">Submitted</text><text x="62" y="278" font-size="12" font-weight="400" fill="#7C7590" text-anchor="start" letter-spacing="0">Tue 09:14</text><rect x="35" y="342" width="2" height="56" fill="#00BBD8"/><circle cx="36" cy="334" r="11" fill="#00BBD8"/><path d="M30 334 l4 4 8-8" fill="none" stroke="#FFF" stroke-width="2.2" stroke-linecap="round" stroke-linejoin="round"/><text x="62" y="332" font-size="15" font-weight="700" fill="#2A2440" text-anchor="start" letter-spacing="0">Acknowledged</text><text x="62" y="352" font-size="12" font-weight="400" fill="#7C7590" text-anchor="start" letter-spacing="0">Tue 11:02</text><rect x="35" y="416" width="2" height="56" fill="#00BBD8"/><circle cx="36" cy="408" r="11" fill="#00BBD8"/><path d="M30 408 l4 4 8-8" fill="none" stroke="#FFF" stroke-width="2.2" stroke-linecap="round" stroke-linejoin="round"/><text x="62" y="406" font-size="15" font-weight="700" fill="#2A2440" text-anchor="start" letter-spacing="0">Assigned to engineer</text><text x="62" y="426" font-size="12" font-weight="400" fill="#7C7590" text-anchor="start" letter-spacing="0">Wed 08:30</text><rect x="35" y="490" width="2" height="56" fill="#00BBD8"/><circle cx="36" cy="482" r="13" fill="rgba(0,187,216,.22)"/><circle cx="36" cy="482" r="7" fill="#00BBD8"/><text x="62" y="480" font-size="15" font-weight="700" fill="#2A2440" text-anchor="start" letter-spacing="0">Work in progress</text><text x="62" y="500" font-size="12" font-weight="400" fill="#7C7590" text-anchor="start" letter-spacing="0">Thu 14:20</text><circle cx="36" cy="556" r="11" fill="none" stroke="#D6D1E2" stroke-width="2"/><text x="62" y="554" font-size="15" font-weight="500" fill="#9691A8" text-anchor="start" letter-spacing="0">Resolved</text><text x="62" y="574" font-size="12" font-weight="400" fill="#7C7590" text-anchor="start" letter-spacing="0">Pending</text><rect x="20" y="636" width="350" height="74" rx="16" fill="#FFF" stroke="rgba(21,16,36,.10)"/><circle cx="52" cy="673" r="18" fill="#6F2B8F"/><text x="52" y="678" font-size="12.5" font-weight="700" fill="#FFF" text-anchor="middle" letter-spacing="0">SD</text><text x="84" y="668" font-size="14" font-weight="700" fill="#151024" text-anchor="start" letter-spacing="0">S. Das · Junior Engineer</text><text x="84" y="688" font-size="11.5" font-weight="400" fill="#7C7590" text-anchor="start" letter-spacing="0">Ward 12 water division</text><rect x="20" y="730" width="350" height="48" rx="13" fill="none" stroke="#6F2B8F" stroke-width="1.6"/><text x="195" y="760" font-size="14.5" font-weight="700" fill="#6F2B8F" text-anchor="middle" letter-spacing="0">Add an update</text><rect x="0" y="760" width="390" height="84" fill="#FFF"/><rect x="0" y="760" width="390" height="1" fill="rgba(21,16,36,.10)"/><g transform="translate(37.75,778)" fill="none" stroke="#9691A8" stroke-width="1.9" stroke-linecap="round" stroke-linejoin="round"><path d="M5 3h12v18l-3-2-3 2-3-2-3 2z"/><path d="M9 8h5M9 12h5"/></g><text x="48.75" y="814" font-size="10.5" font-weight="600" fill="#9691A8" text-anchor="middle" letter-spacing="0">Report</text><g transform="translate(135.25,778)" fill="none" stroke="#6F2B8F" stroke-width="1.9" stroke-linecap="round" stroke-linejoin="round"><circle cx="11" cy="11" r="8"/><path d="M11 6v5l3.5 2"/></g><text x="146.25" y="814" font-size="10.5" font-weight="600" fill="#6F2B8F" text-anchor="middle" letter-spacing="0">Track</text><g transform="translate(232.75,778)" fill="none" stroke="#9691A8" stroke-width="1.9" stroke-linecap="round" stroke-linejoin="round"><path d="M5 9a6 6 0 0 1 12 0c0 5 2 6 2 6H3s2-1 2-6"/><path d="M9 19a2.5 2.5 0 0 0 5 0"/></g><text x="243.75" y="814" font-size="10.5" font-weight="600" fill="#9691A8" text-anchor="middle" letter-spacing="0">Notices</text><g transform="translate(330.25,778)" fill="none" stroke="#9691A8" stroke-width="1.9" stroke-linecap="round" stroke-linejoin="round"><circle cx="11" cy="7" r="4"/><path d="M3 21a8 8 0 0 1 16 0"/></g><text x="341.25" y="814" font-size="10.5" font-weight="600" fill="#9691A8" text-anchor="middle" letter-spacing="0">Me</text><rect x="128.0" y="831" width="134" height="5" rx="2.5" fill="rgba(21,16,36,.22)"/></g><rect x=".75" y=".75" width="388.5" height="842.5" rx="44" fill="none" stroke="rgba(0,0,0,.18)" stroke-width="1.5"/></svg>