<svg xmlns="http://www.w3.org/2000/svg" viewBox="0 0 390 844" width="390" height="844" font-family="Inter, system-ui, -apple-system, sans-serif">
<defs>
<clipPath id="screen"><rect x="0" y="0" width="390" height="844" rx="44"/></clipPath>
</defs>
<g clip-path="url(#screen)">
<rect width="390" height="844" fill="#F4F7F8"/>
<g fill="#0B1A22" font-size="13" font-weight="600">
<text x="26" y="44">9:41</text>
<g transform="translate(310,33)">
<rect x="0" y="3" width="16" height="9" rx="2" fill="none" stroke="#0B1A22" stroke-width="1.4" opacity=".8"/>
<rect x="1.6" y="4.6" width="11" height="5.8" rx="1" fill="#0B1A22"/>
<rect x="24" y="1" width="22" height="12" rx="3" fill="none" stroke="#0B1A22" stroke-width="1.4" opacity=".8"/>
<rect x="26" y="3" width="14" height="8" rx="1.5" fill="#0B1A22"/>
</g></g><rect width="390" height="196" fill="#0E9E90"/><text x="26" y="86" font-size="12.5" font-weight="600" fill="rgba(255,255,255,.72)" text-anchor="start" letter-spacing="0">Monday, 14 September</text><text x="26" y="114" font-size="25" font-weight="800" fill="#FFFFFF" text-anchor="start" letter-spacing="0">Today's route</text><circle cx="348" cy="98" r="19" fill="rgba(255,255,255,.18)"/><text x="348" y="103" font-size="12.5" font-weight="700" fill="#FFFFFF" text-anchor="middle" letter-spacing="0">SM</text><rect x="26" y="136" width="103" height="46" rx="12" fill="rgba(255,255,255,.16)"/><text x="77" y="160" font-size="17" font-weight="800" fill="#FFFFFF" text-anchor="middle" letter-spacing="0">12</text><text x="77" y="175" font-size="10" font-weight="600" fill="rgba(255,255,255,.72)" text-anchor="middle" letter-spacing="0">Calls</text><rect x="139" y="136" width="103" height="46" rx="12" fill="rgba(255,255,255,.16)"/><text x="190" y="160" font-size="17" font-weight="800" fill="#FFFFFF" text-anchor="middle" letter-spacing="0">8</text><text x="190" y="175" font-size="10" font-weight="600" fill="rgba(255,255,255,.72)" text-anchor="middle" letter-spacing="0">Done</text><rect x="252" y="136" width="103" height="46" rx="12" fill="rgba(255,255,255,.16)"/><text x="303" y="160" font-size="17" font-weight="800" fill="#FFFFFF" text-anchor="middle" letter-spacing="0">₹1.4L</text><text x="303" y="175" font-size="10" font-weight="600" fill="rgba(255,255,255,.72)" text-anchor="middle" letter-spacing="0">Booked</text><text x="26" y="232" font-size="10.5" font-weight="700" fill="#7C8E97" text-anchor="start" letter-spacing="1.4">NEXT STOPS</text><rect x="20" y="248" width="350" height="74" rx="16" fill="#FFFFFF" stroke="rgba(11,26,34,.10)"/><rect x="20" y="248" width="4" height="74" rx="2" fill="#0E9E90"/><text x="40" y="276" font-size="15" font-weight="700" fill="#0B1A22" text-anchor="start" letter-spacing="0">Sharma Traders</text><text x="40" y="297" font-size="12" font-weight="400" fill="#7C8E97" text-anchor="start" letter-spacing="0">Behala · 2.4 km</text><rect x="40" y="304" width="92.0" height="21" rx="10.5" fill="#DCF3F0"/><text x="86.0" y="318.5" font-size="10.5" font-weight="700" fill="#0E9E90" text-anchor="middle" letter-spacing="0">Order placed</text><path d="M348 279 l7 6 -7 6" fill="none" stroke="#B4C0C6" stroke-width="2" stroke-linecap="round"/><rect x="20" y="334" width="350" height="74" rx="16" fill="#FFFFFF" stroke="rgba(11,26,34,.10)"/><rect x="20" y="334" width="4" height="74" rx="2" fill="#B8730C"/><text x="40" y="362" font-size="15" font-weight="700" fill="#0B1A22" text-anchor="start" letter-spacing="0">New Bengal Stores</text><text x="40" y="383" font-size="12" font-weight="400" fill="#7C8E97" text-anchor="start" letter-spacing="0">Thakurpukur · 5.1 km</text><rect x="40" y="390" width="86.0" height="21" rx="10.5" fill="#FDF0DA"/><text x="83.0" y="404.5" font-size="10.5" font-weight="700" fill="#B8730C" text-anchor="middle" letter-spacing="0">In progress</text><path d="M348 365 l7 6 -7 6" fill="none" stroke="#B4C0C6" stroke-width="2" stroke-linecap="round"/><rect x="20" y="420" width="350" height="74" rx="16" fill="#FFFFFF" stroke="rgba(11,26,34,.10)"/><rect x="20" y="420" width="4" height="74" rx="2" fill="#5A6C75"/><text x="40" y="448" font-size="15" font-weight="700" fill="#0B1A22" text-anchor="start" letter-spacing="0">Kalighat Provisions</text><text x="40" y="469" font-size="12" font-weight="400" fill="#7C8E97" text-anchor="start" letter-spacing="0">Kalighat · 7.8 km</text><rect x="40" y="476" width="62.0" height="21" rx="10.5" fill="#EDF1F2"/><text x="71.0" y="490.5" font-size="10.5" font-weight="700" fill="#5A6C75" text-anchor="middle" letter-spacing="0">Pending</text><path d="M348 451 l7 6 -7 6" fill="none" stroke="#B4C0C6" stroke-width="2" stroke-linecap="round"/><rect x="20" y="506" width="350" height="74" rx="16" fill="#FFFFFF" stroke="rgba(11,26,34,.10)"/><rect x="20" y="506" width="4" height="74" rx="2" fill="#5A6C75"/><text x="40" y="534" font-size="15" font-weight="700" fill="#0B1A22" text-anchor="start" letter-spacing="0">Ganguly &amp; Sons</text><text x="40" y="555" font-size="12" font-weight="400" fill="#7C8E97" text-anchor="start" letter-spacing="0">Tollygunge · 9.2 km</text><rect x="40" y="562" width="62.0" height="21" rx="10.5" fill="#EDF1F2"/><text x="71.0" y="576.5" font-size="10.5" font-weight="700" fill="#5A6C75" text-anchor="middle" letter-spacing="0">Pending</text><path d="M348 537 l7 6 -7 6" fill="none" stroke="#B4C0C6" stroke-width="2" stroke-linecap="round"/><circle cx="322" cy="720" r="30" fill="#0E9E90"/><g transform="translate(322,720)" stroke="#FFF" stroke-width="2.6" stroke-linecap="round"><path d="M-10 0h20M0 -10v20"/></g><rect x="0" y="760" width="390" height="84" fill="#FFFFFF"/><rect x="0" y="760" width="390" height="1" fill="rgba(11,26,34,.10)"/><g transform="translate(37.75,778)" fill="none" stroke="#0E9E90" stroke-width="1.9" stroke-linecap="round" stroke-linejoin="round"><circle cx="5" cy="5" r="3"/><circle cx="17" cy="17" r="3"/><path d="M8 5h5a4 4 0 0 1 0 8H9a4 4 0 0 0 0 4"/></g><text x="48.75" y="814" font-size="10.5" font-weight="600" fill="#0E9E90" text-anchor="middle">Route</text><g transform="translate(135.25,778)" fill="none" stroke="#93A3AC" stroke-width="1.9" stroke-linecap="round" stroke-linejoin="round"><path d="M4 3h11l4 4v14H4z"/><path d="M8 11h7M8 15h7"/></g><text x="146.25" y="814" font-size="10.5" font-weight="600" fill="#93A3AC" text-anchor="middle">Orders</text><g transform="translate(232.75,778)" fill="none" stroke="#93A3AC" stroke-width="1.9" stroke-linecap="round" stroke-linejoin="round"><path d="M3 7l8-4 8 4v10l-8 4-8-4z"/><path d="M3 7l8 4 8-4M11 11v10"/></g><text x="243.75" y="814" font-size="10.5" font-weight="600" fill="#93A3AC" text-anchor="middle">Stock</text><g transform="translate(330.25,778)" fill="none" stroke="#93A3AC" stroke-width="1.9" stroke-linecap="round" stroke-linejoin="round"><circle cx="11" cy="7" r="4"/><path d="M3 21a8 8 0 0 1 16 0"/></g><text x="341.25" y="814" font-size="10.5" font-weight="600" fill="#93A3AC" text-anchor="middle">Me</text><rect x="128.0" y="831" width="134" height="5" rx="2.5" fill="rgba(11,26,34,.22)"/>
</g>
<g opacity=".55" fill="#FFFFFF">
<rect x="150" y="14" width="90" height="6" rx="3"/>
</g>
<rect x=".75" y=".75" width="388.5" height="842.5" rx="44" fill="none" stroke="rgba(0,0,0,.16)" stroke-width="1.5"/>
</svg>